<?xml version="1.0" standalone="no"?>
<!DOCTYPE svg PUBLIC "-//W3C//DTD SVG 20010904//EN"
 "http://www.w3.org/TR/2001/REC-SVG-20010904/DTD/svg10.dtd">
<svg version="1.0" xmlns="http://www.w3.org/2000/svg"
 width="384.000000pt" height="384.000000pt" viewBox="0 0 384.000000 384.000000"
 preserveAspectRatio="xMidYMid meet">

<g transform="translate(0.000000,384.000000) scale(0.100000,-0.100000)"
fill="#000000" stroke="none">
<path d="M487 3733 c-4 -3 -7 -19 -7 -34 0 -27 -2 -28 -62 -31 l-63 -3 -3 -37
c-3 -38 -4 -38 -48 -38 l-44 0 0 -40 0 -40 -40 0 -40 0 0 -49 0 -49 -40 -7
-40 -7 0 -198 0 -199 37 -3 38 -3 5 -55 5 -55 38 -3 c20 -2 35 -7 32 -12 -3
-5 -3 -21 1 -35 5 -20 14 -26 43 -31 32 -5 37 -9 36 -32 0 -23 -5 -28 -35 -32
l-35 -5 -3 -87 -3 -88 -33 0 c-42 0 -46 -12 -46 -137 l0 -93 -40 0 -40 0 2
-387 3 -388 37 -3 38 -3 0 -104 0 -105 40 -6 39 -6 3 -62 3 -61 38 -3 c36 -3
37 -4 37 -42 0 -39 11 -50 51 -50 12 0 19 -7 19 -20 0 -10 8 -24 18 -29 16
-10 16 -10 0 -11 -10 0 -18 -6 -18 -14 0 -9 -17 -16 -45 -20 -45 -7 -45 -8
-45 -47 0 -35 -3 -39 -24 -39 -13 0 -38 -8 -55 -17 -26 -15 -31 -24 -31 -55 0
-36 -1 -38 -34 -38 -35 0 -46 -15 -46 -67 0 -19 -6 -23 -29 -23 -27 0 -30 -3
-33 -38 -3 -34 -6 -37 -36 -40 l-32 -3 0 -120 c0 -78 4 -118 10 -114 5 3 10
21 10 40 0 29 4 34 28 37 24 3 27 8 30 45 3 37 6 42 30 45 22 2 28 9 30 36 3
28 7 32 33 32 29 0 35 11 30 61 -1 12 10 20 36 26 36 8 38 11 41 51 3 41 4 42
38 42 32 0 34 2 34 34 0 33 2 34 43 37 23 2 56 3 74 1 28 -3 32 -7 35 -35 3
-31 5 -32 48 -33 43 0 45 -2 48 -32 l3 -32 60 0 c59 0 59 0 59 -30 l0 -29 88
-3 c87 -3 87 -3 90 -30 l3 -28 85 0 c77 0 84 -2 84 -20 0 -19 7 -20 100 -20
l100 0 0 -30 0 -30 155 0 155 0 0 -25 c0 -21 5 -25 33 -26 17 0 177 -1 354 -2
l323 -2 0 27 0 27 118 3 117 3 3 32 3 32 82 3 c82 3 82 3 85 31 3 28 4 28 70
25 l67 -3 3 37 3 37 62 3 c60 3 62 4 67 33 5 29 7 30 60 30 l55 0 3 37 3 37
45 -3 c37 -2 44 0 44 16 0 15 8 18 45 18 l45 0 0 40 c0 38 2 40 29 40 17 0 33
-4 36 -10 3 -5 19 -10 35 -10 26 0 29 -4 32 -37 3 -37 4 -38 45 -41 40 -3 42
-4 45 -40 3 -34 6 -37 36 -40 28 -3 32 -7 32 -32 0 -30 30 -60 60 -60 11 0 15
-11 15 -37 0 -35 2 -38 33 -41 29 -3 32 -6 32 -38 0 -31 3 -34 29 -34 28 0 30
-3 33 -43 2 -24 8 -43 16 -43 6 -1 19 -2 27 -3 10 -1 15 -12 15 -35 0 -19 5
-38 10 -41 6 -4 10 37 10 114 l0 121 -34 0 c-33 0 -35 2 -38 37 -3 33 -7 39
-33 43 -26 4 -30 10 -33 42 -3 34 -7 38 -37 44 -30 5 -34 10 -37 42 -2 27 -10
40 -33 53 -16 10 -40 18 -52 18 -20 1 -23 6 -23 41 0 39 -1 40 -34 40 -21 0
-42 9 -60 25 -15 14 -22 25 -17 25 6 0 11 14 11 30 0 28 2 30 40 30 40 0 40 0
40 39 0 39 1 40 38 43 l37 3 3 62 3 61 37 9 37 9 2 89 c1 50 2 95 2 102 1 6
18 13 39 15 l37 3 3 387 2 387 -42 3 -43 3 -2 70 c0 39 -2 89 -2 113 -1 41 -2
42 -36 42 l-34 0 -3 88 -3 87 -32 3 c-29 3 -33 7 -33 33 0 24 4 29 24 29 31 0
54 22 52 52 -1 19 5 24 34 28 35 5 35 5 38 63 l3 57 39 0 40 0 0 199 0 200
-37 3 -38 3 -3 52 -3 52 -37 3 c-35 3 -37 5 -40 41 -3 37 -4 37 -48 37 l-44 0
0 40 0 40 -70 0 -70 0 0 35 0 35 -189 0 -190 0 -3 -32 -3 -33 -67 -3 -68 -3 0
-34 0 -35 -50 0 -50 0 0 -50 0 -50 -40 0 -40 0 0 -50 0 -50 -36 0 c-27 0 -37
5 -41 20 -5 17 -15 20 -102 22 l-96 3 -3 28 -3 27 -415 0 -414 0 0 -30 0 -30
-99 0 c-83 0 -100 -3 -103 -16 -2 -12 -19 -17 -70 -20 l-67 -4 -3 47 c-3 48
-3 48 -43 53 -40 5 -40 5 -43 53 l-3 47 -50 0 -49 0 0 35 0 34 -67 3 -68 3 -3
33 -3 32 -188 0 c-103 0 -191 -3 -194 -7z m373 -118 l0 -35 65 0 65 0 0 -35
c0 -32 2 -35 30 -35 27 0 30 -3 30 -30 0 -27 3 -30 30 -30 29 0 29 0 32 -67
l3 -68 118 -3 c111 -2 117 -2 117 17 0 19 8 21 98 23 l97 3 3 28 3 27 405 0
404 0 0 -30 0 -30 94 0 c85 0 94 -2 99 -20 5 -18 14 -20 91 -20 l86 0 0 70 0
70 30 0 c27 0 30 3 30 29 0 25 4 30 28 33 22 2 28 8 30 36 l3 32 65 0 64 0 0
35 0 35 178 -2 177 -3 3 -32 3 -33 65 0 64 0 0 -39 0 -39 48 -7 49 -6 -1 -47
-1 -47 43 -3 42 -3 0 -189 0 -189 -42 -3 -42 -3 3 -47 3 -48 -41 0 c-37 0 -40
-2 -43 -32 -3 -29 -6 -32 -38 -33 l-35 0 -3 -62 -3 -63 40 0 40 0 3 -97 3 -98
33 -3 32 -3 0 -100 0 -99 44 0 45 0 -2 -377 -2 -378 -42 -3 -43 -3 0 -103 0
-102 -35 4 -35 4 -2 -53 c-1 -30 -2 -62 -1 -72 0 -13 -9 -17 -39 -17 -31 0
-38 -3 -38 -20 0 -16 -7 -20 -35 -20 -34 0 -35 -1 -35 -40 l0 -40 -40 0 c-37
0 -40 -2 -41 -27 -1 -16 -1 -34 0 -40 1 -9 -13 -13 -44 -13 -33 0 -45 -4 -45
-14 0 -11 -14 -16 -47 -18 -47 -3 -48 -4 -51 -38 l-3 -35 -57 0 -57 0 -3 -32
-3 -33 -85 0 c-77 0 -84 -2 -84 -20 0 -18 -7 -20 -85 -20 l-86 0 3 -27 3 -28
-117 -3 -118 -3 0 -29 0 -30 -455 0 -455 0 0 30 0 29 -117 3 -118 3 -3 27 c-3
27 -5 28 -68 29 -88 2 -89 2 -89 19 0 12 -15 16 -67 18 -68 3 -68 3 -68 32 l0
30 -70 0 -70 0 0 35 0 35 -60 0 c-53 0 -60 2 -60 20 0 17 -7 20 -50 20 l-50 0
0 40 0 40 -45 0 -46 0 3 38 c3 35 1 37 -29 40 -21 2 -33 9 -33 18 0 9 -11 14
-35 14 l-34 0 -3 68 -3 67 -40 5 -40 5 -3 103 -3 102 -39 0 -40 0 0 380 0 380
45 0 45 0 0 100 0 100 35 0 35 0 0 99 0 100 43 3 42 3 0 60 0 60 -37 -3 c-35
-3 -37 -2 -40 30 -3 31 -5 33 -43 33 l-40 0 0 50 0 50 -42 3 -43 3 0 189 0
189 42 3 43 3 3 47 3 47 45 7 c43 6 44 7 44 45 l0 39 60 0 60 0 0 34 c0 24 5
36 16 38 9 2 93 2 185 0 l169 -3 0 -34z m-303 -2667 c-3 -8 -6 -5 -6 6 -1 11
2 17 5 13 3 -3 4 -12 1 -19z"/>
<path d="M538 3431 c-3 -35 -5 -36 -45 -39 -42 -3 -43 -4 -43 -37 0 -32 -2
-34 -37 -37 -21 -2 -37 -6 -35 -10 1 -5 2 -55 2 -113 l0 -105 30 0 c28 0 30
-3 30 -34 0 -32 3 -35 33 -38 30 -3 32 -5 29 -36 l-4 -33 49 3 c46 3 48 4 51
36 3 30 6 32 43 32 38 0 39 1 39 35 0 35 0 35 45 35 45 0 45 0 45 34 0 34 1
35 43 38 39 3 42 5 45 36 3 31 5 32 48 32 l44 0 0 45 c0 45 0 45 -35 45 -33 0
-35 2 -35 35 0 34 -1 35 -39 35 -39 0 -40 1 -43 38 l-3 37 -127 1 -127 1 -3
-36z"/>
<path d="M3078 3464 c-5 -4 -8 -22 -8 -41 0 -32 -1 -33 -40 -33 -39 0 -40 -1
-40 -34 0 -33 -2 -35 -37 -38 -37 -3 -38 -4 -41 -45 l-3 -43 45 0 c43 0 45 -1
48 -32 3 -31 6 -33 46 -36 42 -3 43 -4 40 -35 -3 -31 -2 -32 39 -35 39 -3 42
-5 45 -35 3 -30 6 -32 46 -35 41 -3 42 -4 42 -38 0 -34 0 -34 45 -34 45 0 45
0 45 35 0 33 2 35 35 35 33 0 35 2 35 35 0 32 2 35 30 35 l30 0 0 115 0 115
-34 0 c-33 0 -35 2 -38 38 -3 34 -5 37 -35 38 -18 1 -37 2 -43 3 -5 0 -10 15
-10 31 l0 30 -74 0 c-40 0 -93 3 -117 6 -24 3 -47 2 -51 -2z"/>
<path d="M940 2290 c0 -88 0 -163 0 -167 0 -5 71 -8 158 -8 l157 0 3 168 2
167 -160 0 -160 0 0 -160z"/>
<path d="M2582 2283 l3 -168 158 -3 157 -3 0 171 0 170 -160 0 -160 0 2 -167z"/>
<path d="M1693 2093 c-19 -4 -23 -11 -23 -38 0 -33 -1 -34 -47 -37 l-48 -3 -3
-117 -3 -118 51 0 50 0 0 -40 0 -40 50 0 50 0 0 -35 0 -35 55 0 55 0 0 -165 0
-165 -100 0 -100 0 0 -40 0 -40 105 0 105 0 0 35 c0 35 0 35 45 35 45 0 45 0
45 -35 l0 -35 105 0 105 0 0 40 0 39 -102 3 -103 3 0 160 0 160 58 3 57 3 0
34 0 35 50 0 50 0 0 40 0 40 45 0 45 0 0 120 0 120 -45 0 c-44 0 -45 0 -45 34
0 33 -1 33 -52 40 -58 6 -419 6 -455 -1z"/>
<path d="M439 414 c-1 -33 -1 -62 0 -66 1 -7 -7 -9 -49 -12 -11 -1 -16 -17
-18 -68 -3 -68 -3 -68 -32 -68 l-30 0 0 -70 c0 -68 -1 -70 -25 -70 -21 0 -25
-5 -25 -30 0 -30 1 -30 55 -30 42 0 55 3 55 15 0 8 9 15 20 15 17 0 20 7 21
43 2 91 2 92 32 95 27 3 27 5 27 72 0 67 0 69 28 72 26 3 27 5 30 76 3 69 2
72 -20 72 -13 0 -33 3 -45 6 -22 6 -23 3 -24 -52z"/>
<path d="M3347 462 l-38 -3 3 -72 c3 -70 4 -72 31 -75 27 -3 27 -4 27 -73 l0
-69 30 0 30 0 0 -70 c0 -63 2 -70 20 -70 11 0 20 -7 20 -15 0 -12 13 -15 58
-15 57 0 58 1 57 28 0 23 -5 27 -31 30 -31 3 -32 4 -27 49 7 66 -2 93 -32 93
-23 0 -24 3 -27 68 l-3 67 -32 -3 -31 -3 -1 62 c0 34 -4 65 -8 68 -4 3 -25 5
-46 3z"/>
</g>
</svg>
